<svg width="771" height="764" viewBox="0 0 771 764" fill="none" xmlns="http://www.w3.org/2000/svg">
<g filter="url(#filter0_f_107_2739)">
<path fill-rule="evenodd" clip-rule="evenodd" d="M394.767 200.038C309.322 198.354 229.417 252.204 205.753 334.207C184.042 409.438 236.955 479.258 301.265 524.043C361.023 565.659 438.825 579.84 498.459 538.049C560.94 494.263 584.488 414.112 562.13 341.232C538.481 264.141 475.494 201.63 394.767 200.038Z" fill="url(#paint0_linear_107_2739)"/>
</g>
<g filter="url(#filter1_f_107_2739)">
<path fill-rule="evenodd" clip-rule="evenodd" d="M382.381 169.636C427.358 168.734 475.712 184.849 489.846 227.619C504.157 270.924 475.495 313.328 438.795 340.346C401.293 367.954 351.471 384.493 313.639 357.339C275.241 329.779 271.132 276.097 287.398 231.68C301.789 192.387 340.598 170.474 382.381 169.636Z" fill="url(#paint1_linear_107_2739)"/>
</g>
<defs>
<filter id="filter0_f_107_2739" x="0.800781" y="0" width="769.6" height="763.2" filterUnits="userSpaceOnUse" color-interpolation-filters="sRGB">
<feFlood flood-opacity="0" result="BackgroundImageFix"/>
<feBlend mode="normal" in="SourceGraphic" in2="BackgroundImageFix" result="shape"/>
<feGaussianBlur stdDeviation="100" result="effect1_foregroundBlur_107_2739"/>
</filter>
<filter id="filter1_f_107_2739" x="178.4" y="69.6001" width="415.199" height="401.6" filterUnits="userSpaceOnUse" color-interpolation-filters="sRGB">
<feFlood flood-opacity="0" result="BackgroundImageFix"/>
<feBlend mode="normal" in="SourceGraphic" in2="BackgroundImageFix" result="shape"/>
<feGaussianBlur stdDeviation="50" result="effect1_foregroundBlur_107_2739"/>
</filter>
<linearGradient id="paint0_linear_107_2739" x1="385.6" y1="200" x2="385.6" y2="563.2" gradientUnits="userSpaceOnUse">
<stop stop-color="#FC50B7"/>
<stop offset="1" stop-color="#FFC56F" stop-opacity="0.46"/>
</linearGradient>
<linearGradient id="paint1_linear_107_2739" x1="386" y1="169.6" x2="386" y2="371.2" gradientUnits="userSpaceOnUse">
<stop stop-color="#FF08AB"/>
<stop offset="1" stop-color="#F58A25" stop-opacity="0"/>
<stop offset="1" stop-color="#7061A3" stop-opacity="0"/>
</linearGradient>
</defs>
</svg>
